<?xml version="1.0" encoding="utf-8"?>
<!-- Generator: Adobe Illustrator 15.0.0, SVG Export Plug-In . SVG Version: 6.00 Build 0)  -->
<!DOCTYPE svg PUBLIC "-//W3C//DTD SVG 1.1//EN" "http://www.w3.org/Graphics/SVG/1.1/DTD/svg11.dtd">
<svg version="1.1" id="Layer_1" xmlns="http://www.w3.org/2000/svg" xmlns:xlink="http://www.w3.org/1999/xlink" x="0px" y="0px"
	 width="100px" height="100.013px" viewBox="0 0.485 100 100.013" enable-background="new 0 0.485 100 100.013"
	 xml:space="preserve">
<title>67 -Greenhouse- (Solid)</title>
<desc>Created with Sketch.</desc>
<g>
	<g transform="translate(-840.000000, -1130.000000)">
		<g transform="translate(840.000000, 1130.000000)">
			<polygon fill="#698C2C" points="13.194,86.247 86.806,86.247 86.806,80.114 13.194,80.114 			"/>
			<path fill="#698C2C" d="M66.998,51.104c0.717,4.592,4.352,8.227,8.943,8.943C75.226,55.457,71.589,51.821,66.998,51.104"/>
			<path fill="#698C2C" d="M79.268,50.848c4.591-0.718,8.227-4.354,8.944-8.944C83.619,42.62,79.982,46.255,79.268,50.848"/>
			<path fill="#698C2C" d="M51.663,69.251c4.591-0.718,8.227-4.354,8.944-8.945C56.016,61.021,52.379,64.658,51.663,69.251"/>
			<path fill="#698C2C" d="M95.102,34.241L50.627,14.304c-0.398-0.18-0.857-0.18-1.254,0L4.899,34.241
				c-0.553,0.247-0.906,0.796-0.906,1.399v49.074c0,0.85,0.685,1.533,1.534,1.533h4.6V78.58c0-0.849,0.686-1.533,1.534-1.533h9.202
				V63.153C13.97,62.389,8.594,56.535,8.594,49.442c0-0.848,0.686-1.534,1.533-1.534c4.334,0,8.203,2.012,10.735,5.147V37.514
				c0-0.848,0.686-1.534,1.534-1.534s1.533,0.686,1.533,1.534v6.338c2.532-3.133,6.401-5.145,10.735-5.145
				c0.848,0,1.534,0.685,1.534,1.533c0,7.093-5.378,12.947-12.269,13.713v8.302c2.532-3.133,6.401-5.146,10.735-5.146
				c0.848,0,1.534,0.686,1.534,1.533c0,7.094-5.378,12.947-12.269,13.713v4.691h24.537V63.153
				c-6.891-0.765-12.268-6.618-12.268-13.711c0-0.848,0.685-1.534,1.534-1.534c4.333,0,8.203,2.012,10.734,5.147V37.514
				c0-0.848,0.686-1.534,1.534-1.534c0.847,0,1.534,0.686,1.534,1.534v6.338c2.531-3.133,6.399-5.145,10.734-5.145
				c0.85,0,1.533,0.685,1.533,1.533c0,7.093-5.377,12.947-12.268,13.713v8.302c2.531-3.133,6.399-5.146,10.734-5.146
				c0.85,0,1.533,0.686,1.533,1.533c0,7.094-5.377,12.947-12.268,13.713v4.691h24.537V63.153c-6.892-0.765-12.27-6.618-12.27-13.711
				c0-0.848,0.687-1.534,1.534-1.534c4.335,0,8.203,2.012,10.735,5.147V37.514c0-0.848,0.686-1.534,1.533-1.534
				c0.849,0,1.533,0.686,1.533,1.534v6.338c2.532-3.133,6.401-5.145,10.735-5.145c0.85,0,1.533,0.685,1.533,1.533
				c0,7.093-5.377,12.947-12.269,13.713v8.302c2.532-3.133,6.401-5.146,10.735-5.146c0.85,0,1.533,0.686,1.533,1.533
				c0,7.094-5.377,12.947-12.269,13.713v4.691h9.203c0.847,0,1.532,0.685,1.532,1.533v7.667h4.602c0.848,0,1.533-0.684,1.533-1.533
				V35.64C96.008,35.037,95.651,34.487,95.102,34.241"/>
			<path fill="#698C2C" d="M79.268,69.251c4.591-0.718,8.227-4.354,8.944-8.945C83.619,61.021,79.982,64.658,79.268,69.251"/>
			<path fill="#698C2C" d="M24.058,50.848c4.592-0.718,8.228-4.354,8.945-8.944C28.41,42.62,24.774,46.255,24.058,50.848"/>
			<path fill="#698C2C" d="M11.79,51.104c0.716,4.592,4.353,8.227,8.943,8.943C20.017,55.457,16.381,51.821,11.79,51.104"/>
			<path fill="#698C2C" d="M24.058,69.251c4.592-0.718,8.228-4.354,8.945-8.945C28.41,61.021,24.774,64.658,24.058,69.251"/>
			<path fill="#698C2C" d="M51.663,50.848c4.591-0.718,8.227-4.354,8.944-8.944C56.016,42.62,52.379,46.255,51.663,50.848"/>
			<path fill="#698C2C" d="M39.394,51.104c0.716,4.592,4.353,8.227,8.944,8.943C47.621,55.457,43.985,51.821,39.394,51.104"/>
		</g>
	</g>
</g>
</svg>
