<?xml version="1.0" encoding="utf-8"?>
<!-- Generator: Adobe Illustrator 15.0.0, SVG Export Plug-In . SVG Version: 6.00 Build 0)  -->
<!DOCTYPE svg PUBLIC "-//W3C//DTD SVG 1.1//EN" "http://www.w3.org/Graphics/SVG/1.1/DTD/svg11.dtd">
<svg version="1.1" id="Layer_1" xmlns="http://www.w3.org/2000/svg" xmlns:xlink="http://www.w3.org/1999/xlink" x="0px" y="0px"
	 width="100px" height="100.013px" viewBox="0 0.485 100 100.013" enable-background="new 0 0.485 100 100.013"
	 xml:space="preserve">
<title>67 -Greenhouse- (Solid)</title>
<desc>Created with Sketch.</desc>
<g>
	<path fill="#698C2C" d="M15.864,94.797l-4.816-3.204c0.565-0.851,14.146-20.86,38.697-20.86v5.785
		C28.356,76.518,15.986,94.613,15.864,94.797z"/>
</g>
<g>
	<g>
		<path fill="#698C2C" d="M22.145,85.896l-3.891-4.284c1.063-0.968,2.169-1.896,3.285-2.762l3.548,4.566
			C24.09,84.194,23.099,85.028,22.145,85.896z M31.487,79.251l-2.727-5.104c1.282-0.683,2.598-1.313,3.909-1.866l2.25,5.33
			C33.769,78.095,32.614,78.646,31.487,79.251z M42.138,75.361l-1.175-5.665c1.412-0.294,2.862-0.518,4.312-0.666l0.588,5.755
			C44.61,74.913,43.357,75.107,42.138,75.361z"/>
	</g>
	<g>
		<path fill="#698C2C" d="M15.861,92.871l-4.813-3.209c0,0,0.43-0.651,1.28-1.727l4.544,3.574
			C16.236,92.32,15.895,92.824,15.861,92.871z"/>
	</g>
</g>
<g>
	<rect x="13.457" y="90.3" fill="#698C2C" width="36.292" height="1.929"/>
</g>
<g>
	<g>
		<g>
			<g>
				
					<ellipse transform="matrix(0.9974 -0.0714 0.0714 0.9974 -4.3984 3.0987)" fill="#698C2C" cx="41.139" cy="63.065" rx="0.964" ry="0.479"/>
			</g>
		</g>
		<g>
			<g>
				<path fill="#698C2C" d="M40.653,56.648c-0.528,0.039-0.997-0.37-1.042-0.916c-0.044-0.547,0.353-1.026,0.881-1.071
					s0.997,0.368,1.041,0.916C41.579,56.126,41.184,56.605,40.653,56.648z M39.998,48.71c-0.528,0.044-1-0.363-1.047-0.907
					c-0.048-0.543,0.345-1.027,0.874-1.076c0.529-0.048,0.999,0.36,1.047,0.906C40.919,48.181,40.526,48.665,39.998,48.71z
					 M39.276,40.787c-0.526,0.049-1.002-0.356-1.055-0.899c-0.052-0.543,0.336-1.031,0.863-1.083
					c0.526-0.052,1.002,0.353,1.054,0.898C40.191,40.249,39.803,40.737,39.276,40.787z M38.46,32.866
					c-0.526,0.058-1.009-0.338-1.07-0.881c-0.062-0.543,0.32-1.037,0.846-1.097c0.527-0.059,1.009,0.336,1.07,0.882
					C39.369,32.314,38.989,32.809,38.46,32.866z M37.481,24.965c-0.525,0.076-0.999-0.162-1.051-0.532
					c-0.054-0.366,0.234-1.354,0.758-1.436c0.524-0.082,0.997,0.142,1.051,0.496C38.293,23.847,38.007,24.89,37.481,24.965z
					 M35.954,17.157c-0.503,0.17-1.012,0.041-1.134-0.283c-0.122-0.325-0.093-1.328,0.386-1.556
					c0.478-0.231,0.997-0.132,1.151,0.215C36.511,15.881,36.457,16.987,35.954,17.157z M31.744,10.507
					c-0.374,0.376-0.891,0.484-1.147,0.24c-0.256-0.24-0.664-1.164-0.326-1.572c0.337-0.41,0.844-0.546,1.13-0.302
					C31.682,9.118,32.118,10.13,31.744,10.507z"/>
			</g>
		</g>
		<g>
			<g>
				<path fill="#698C2C" d="M25.326,5.931c-0.258,0.463-0.615,0.761-0.792,0.662c-0.177-0.1-0.32-0.69-0.039-1.142
					c0.281-0.452,0.617-0.756,0.746-0.678C25.373,4.849,25.585,5.468,25.326,5.931z"/>
			</g>
		</g>
	</g>
</g>
<g>
	<g>
		<g>
			<g>
				<path fill="#698C2C" d="M45.862,60.139c-0.531-0.016-0.951-0.475-0.936-1.021c0.016-0.546,0.46-0.981,0.994-0.968
					c0.53,0.018,0.952,0.478,0.935,1.023C46.837,59.722,46.39,60.155,45.862,60.139z M46.068,52.18
					c-0.53-0.012-0.955-0.468-0.943-1.017c0.012-0.546,0.455-0.985,0.985-0.976c0.53,0.011,0.955,0.467,0.943,1.015
					C47.041,51.752,46.596,52.189,46.068,52.18z M46.215,44.219c-0.531-0.007-0.961-0.46-0.953-1.008
					c0.008-0.548,0.445-0.99,0.977-0.984c0.53,0.006,0.959,0.461,0.952,1.009C47.185,43.783,46.745,44.227,46.215,44.219z
					 M46.282,36.26c-0.53-0.001-0.964-0.449-0.964-0.993c0-0.546,0.436-0.994,0.964-0.996c0.528-0.002,0.964,0.445,0.964,0.996
					C47.246,35.814,46.812,36.262,46.282,36.26z M46.23,28.301c-0.528,0.01-0.972-0.431-0.985-0.975
					c-0.014-0.543,0.413-1.002,0.941-1.017c0.53-0.013,0.974,0.425,0.986,0.974C47.183,27.833,46.761,28.291,46.23,28.301z
					 M45.92,20.344c-0.529,0.038-0.988-0.238-1.017-0.612c-0.029-0.375,0.311-1.309,0.836-1.372
					c0.527-0.062,0.988,0.178,1.022,0.529C46.799,19.24,46.45,20.304,45.92,20.344z M44.094,12.665
					c-0.475,0.238-0.997,0.181-1.163-0.125c-0.166-0.307-0.272-1.308,0.171-1.597c0.444-0.29,0.971-0.261,1.169,0.061
					C44.47,11.329,44.568,12.428,44.094,12.665z M39.153,6.503c-0.347,0.402-0.862,0.539-1.144,0.306
					c-0.283-0.235-0.723-1.128-0.402-1.553c0.319-0.424,0.816-0.587,1.102-0.366C38.993,5.111,39.5,6.103,39.153,6.503z"/>
			</g>
		</g>
	</g>
</g>
<g>
	<g>
		<g>
			<g>
				
					<ellipse transform="matrix(0.9762 -0.2167 0.2167 0.9762 -14.0496 8.1587)" fill="#698C2C" cx="30.175" cy="68.139" rx="0.964" ry="0.477"/>
			</g>
		</g>
	</g>
	<g>
		<g>
			<g>
				<path fill="#698C2C" d="M28.658,61.898c-0.512,0.133-1.047-0.187-1.186-0.71c-0.138-0.524,0.166-1.069,0.679-1.207
					c0.514-0.139,1.009,0.042,1.107,0.406C29.354,60.751,29.171,61.765,28.658,61.898z M26.518,54.262
					c-0.507,0.152-1.052-0.147-1.212-0.664c-0.16-0.521,0.125-1.074,0.633-1.232c0.506-0.16,1.05,0.14,1.21,0.667
					C27.308,53.555,27.025,54.108,26.518,54.262z M24.071,46.719c-0.5,0.175-1.007,0.04-1.128-0.299
					c-0.122-0.338-0.039-1.384,0.46-1.567c0.5-0.184,1.007-0.048,1.132,0.294C24.66,45.492,24.572,46.542,24.071,46.719z
					 M21.236,39.313c-0.488,0.205-1.004,0.102-1.147-0.23c-0.141-0.332-0.124-1.374,0.36-1.589c0.484-0.217,1.003-0.117,1.148,0.218
					C21.743,38.049,21.724,39.108,21.236,39.313z M17.838,32.153c-0.467,0.253-0.989,0.202-1.165-0.114
					c-0.174-0.315-0.266-1.344,0.19-1.613c0.458-0.267,0.981-0.229,1.165,0.089C18.212,30.833,18.305,31.9,17.838,32.153z
					 M13.496,25.538c-0.407,0.34-0.93,0.399-1.163,0.131c-0.231-0.267-0.542-1.226-0.165-1.598c0.378-0.372,0.895-0.457,1.149-0.186
					C13.573,24.154,13.902,25.2,13.496,25.538z"/>
			</g>
		</g>
	</g>
	<g>
		<g>
			<g>
				<path fill="#698C2C" d="M7.278,20.856c-0.154,0.508-0.401,0.889-0.552,0.849c-0.148-0.04-0.467-0.546-0.378-1.07
					c0.089-0.524,0.318-0.917,0.511-0.876C7.052,19.798,7.432,20.352,7.278,20.856z"/>
			</g>
		</g>
	</g>
</g>
<g>
	<g>
		<g>
			<g>
				<path fill="#698C2C" d="M31.173,57.131c-0.526,0.07-1.016-0.313-1.089-0.852c-0.074-0.538,0.297-1.04,0.822-1.114
					c0.524-0.073,1.014,0.311,1.089,0.854C32.068,56.562,31.697,57.062,31.173,57.131z M29.987,49.283
					c-0.522,0.088-1.026-0.277-1.121-0.812c-0.092-0.535,0.258-1.048,0.779-1.142c0.522-0.093,1.027,0.272,1.12,0.812
					C30.861,48.68,30.51,49.195,29.987,49.283z M28.506,41.493c-0.519,0.109-1.004-0.089-1.08-0.44
					c-0.075-0.351,0.143-1.382,0.66-1.499c0.517-0.115,1.005,0.083,1.086,0.441C29.25,40.356,29.025,41.382,28.506,41.493z
					 M26.676,33.778c-0.513,0.137-1.009-0.037-1.103-0.387c-0.095-0.35,0.067-1.383,0.578-1.528c0.512-0.145,1.007,0.027,1.107,0.38
					C27.359,32.597,27.189,33.642,26.676,33.778z M24.372,26.19c-0.5,0.173-1.009,0.042-1.13-0.3
					c-0.122-0.342-0.042-1.376,0.454-1.563c0.495-0.186,1.006-0.059,1.133,0.284C24.956,24.955,24.872,26.018,24.372,26.19z
					 M21.321,18.882c-0.473,0.24-0.996,0.177-1.162-0.141c-0.165-0.318-0.241-1.338,0.22-1.603c0.461-0.264,0.981-0.218,1.161,0.105
					C21.72,17.564,21.793,18.64,21.321,18.882z M16.851,12.38c-0.372,0.379-0.885,0.499-1.14,0.265
					c-0.254-0.234-0.675-1.105-0.368-1.537c0.307-0.432,0.804-0.596,1.105-0.362C16.749,10.98,17.223,12.004,16.851,12.38z"/>
			</g>
		</g>
	</g>
</g>
<g>
	<g>
		<g>
			<path fill="#698C2C" d="M18.868,75.86c-0.042,0.28-0.258,0.389-0.48,0.246c-0.22-0.147-0.613-0.27-0.874-0.27
				c-0.26-0.002-0.494-0.072-0.519-0.158c-0.024-0.086,0.263-0.574,0.76-0.761C18.253,74.73,18.91,75.577,18.868,75.86z"/>
		</g>
	</g>
	<g>
		<g>
			<path fill="#698C2C" d="M15.387,69.631c-0.48,0.229-1.059,0.025-1.286-0.452c-0.229-0.476-0.027-1.058,0.451-1.288
				c0.478-0.232,1.057-0.029,1.286,0.45C16.07,68.823,15.867,69.404,15.387,69.631z M12,62.688
				c-0.475,0.235-1.058,0.041-1.294-0.437c-0.237-0.474-0.042-1.057,0.432-1.293c0.475-0.237,1.057-0.04,1.294,0.436
				C12.668,61.868,12.474,62.453,12,62.688z M8.534,55.779c-0.475,0.24-1.057,0.047-1.298-0.427
				c-0.241-0.473-0.05-1.058,0.423-1.298c0.472-0.24,1.057-0.049,1.297,0.428C9.197,54.957,9.006,55.541,8.534,55.779z"/>
		</g>
	</g>
</g>
<g>
	<g>
		<g>
			<g>
				<path fill="#698C2C" d="M20.796,68.147c-0.042,0.28-0.258,0.388-0.48,0.245c-0.22-0.147-0.614-0.269-0.874-0.269
					c-0.26-0.003-0.493-0.073-0.518-0.158c-0.026-0.088,0.262-0.574,0.759-0.763C20.181,67.017,20.839,67.863,20.796,68.147z"/>
			</g>
		</g>
	</g>
	<g>
		<g>
			<path fill="#698C2C" d="M17.315,61.918c-0.48,0.229-1.059,0.024-1.287-0.453c-0.229-0.477-0.026-1.056,0.452-1.288
				c0.479-0.23,1.057-0.028,1.286,0.452C17.998,61.109,17.796,61.69,17.315,61.918z M13.928,54.974
				c-0.475,0.236-1.057,0.04-1.294-0.435c-0.237-0.476-0.042-1.058,0.432-1.295c0.475-0.237,1.058-0.04,1.294,0.435
				C14.597,54.155,14.402,54.739,13.928,54.974z M10.462,48.066c-0.475,0.239-1.056,0.045-1.297-0.426
				c-0.241-0.472-0.05-1.058,0.422-1.298c0.472-0.239,1.056-0.047,1.297,0.426C11.125,47.243,10.935,47.827,10.462,48.066z
				 M59.651,63.544c-0.527-0.039-0.946-0.282-0.928-0.547c0.02-0.265,0.468-0.445,0.998-0.407c0.53,0.035,0.946,0.282,0.928,0.546
				C60.629,63.397,60.183,63.583,59.651,63.544z M60.174,56.648c-0.527-0.04-0.926-0.522-0.881-1.071
				c0.043-0.545,0.514-0.959,1.04-0.916c0.526,0.042,0.924,0.524,0.882,1.071C61.172,56.278,60.701,56.688,60.174,56.648z
				 M60.83,48.71c-0.527-0.045-0.923-0.527-0.872-1.076c0.047-0.548,0.52-0.955,1.046-0.906c0.525,0.048,0.921,0.53,0.873,1.076
				C61.829,48.35,61.356,48.755,60.83,48.71z M61.551,40.787c-0.526-0.05-0.916-0.538-0.861-1.084
				c0.054-0.545,0.526-0.95,1.057-0.898c0.526,0.051,0.916,0.539,0.861,1.083C62.552,40.431,62.078,40.836,61.551,40.787z
				 M62.367,32.866c-0.527-0.058-0.908-0.552-0.847-1.097c0.061-0.546,0.543-0.94,1.071-0.882c0.528,0.061,0.908,0.556,0.845,1.097
				C63.375,32.528,62.893,32.927,62.367,32.866z M63.345,24.965c-0.524-0.075-0.911-0.439-0.854-0.811
				c0.052-0.373,0.625-1.239,1.148-1.157c0.525,0.083,0.911,0.438,0.854,0.787C64.438,24.133,63.872,25.04,63.345,24.965z
				 M64.872,17.157c-0.504-0.17-0.802-0.607-0.666-0.973c0.137-0.367,0.935-1.094,1.412-0.866c0.479,0.227,0.759,0.668,0.62,0.977
				C66.104,16.606,65.375,17.328,64.872,17.157z M69.084,10.507c-0.374-0.376-0.45-0.9-0.168-1.167
				c0.281-0.266,1.305-0.575,1.644-0.163c0.337,0.41,0.4,0.928,0.14,1.149C70.439,10.547,69.458,10.881,69.084,10.507z M75.5,5.931
				c-0.258-0.463-0.339-0.916-0.179-1.005c0.163-0.089,0.73,0.075,1.009,0.525c0.279,0.45,0.394,0.888,0.249,0.972
				C76.438,6.507,75.76,6.394,75.5,5.931z M54.965,60.139c-0.528,0.017-0.975-0.419-0.99-0.966
				c-0.018-0.546,0.405-1.006,0.934-1.023c0.529-0.014,0.979,0.422,0.995,0.968C55.917,59.664,55.497,60.125,54.965,60.139z
				 M54.762,52.18c-0.53,0.01-0.975-0.431-0.988-0.978c-0.011-0.548,0.413-1.004,0.941-1.015c0.529-0.01,0.975,0.43,0.987,0.976
				C55.714,51.712,55.291,52.171,54.762,52.18z M54.613,44.219c-0.53,0.008-0.971-0.436-0.979-0.983
				c-0.005-0.547,0.424-1.003,0.953-1.009s0.972,0.436,0.978,0.984C55.571,43.758,55.146,44.211,54.613,44.219z M54.545,36.26
				c-0.529,0.002-0.964-0.445-0.966-0.993c0-0.551,0.435-0.998,0.964-0.996c0.53,0.002,0.965,0.45,0.965,0.996
				C55.509,35.811,55.074,36.259,54.545,36.26z M54.596,28.301c-0.531-0.01-0.954-0.467-0.941-1.017
				c0.012-0.549,0.453-0.987,0.982-0.974c0.531,0.014,0.956,0.47,0.944,1.017S55.128,28.311,54.596,28.301z M54.908,20.344
				c-0.528-0.04-0.936-0.391-0.904-0.781c0.03-0.392,0.557-1.264,1.085-1.203c0.528,0.059,0.93,0.388,0.896,0.725
				C55.949,19.421,55.437,20.382,54.908,20.344z M56.734,12.665c-0.474-0.236-0.71-0.713-0.524-1.055
				c0.184-0.341,1.072-0.955,1.514-0.665c0.443,0.29,0.663,0.763,0.485,1.052C58.029,12.285,57.206,12.902,56.734,12.665z
				 M61.675,6.503c-0.348-0.4-0.384-0.932-0.084-1.184c0.302-0.25,1.312-0.485,1.63-0.063c0.321,0.425,0.362,0.941,0.096,1.15
				C63.046,6.614,62.021,6.905,61.675,6.503z M70.548,68.606c-0.52-0.113-0.896-0.414-0.841-0.676
				c0.058-0.26,0.527-0.376,1.046-0.26c0.52,0.116,0.896,0.42,0.84,0.675C71.536,68.599,71.063,68.717,70.548,68.606z M72.17,61.898
				c-0.513-0.134-0.859-0.523-0.769-0.869c0.09-0.346,0.764-1.187,1.276-1.048c0.514,0.138,0.815,0.683,0.678,1.207
				C73.217,61.714,72.681,62.034,72.17,61.898z M74.31,54.262c-0.509-0.151-0.791-0.705-0.631-1.229
				c0.16-0.525,0.706-0.827,1.214-0.667c0.507,0.158,0.789,0.712,0.63,1.232C75.361,54.113,74.818,54.414,74.31,54.262z
				 M76.757,46.719c-0.502-0.176-0.81-0.603-0.686-0.945c0.12-0.343,0.854-1.105,1.353-0.922c0.499,0.183,0.807,0.609,0.683,0.951
				C77.981,46.142,77.256,46.894,76.757,46.719z M79.592,39.313c-0.49-0.205-0.77-0.649-0.627-0.989
				c0.145-0.338,0.927-1.045,1.41-0.829c0.485,0.215,0.765,0.661,0.62,0.988C80.854,38.812,80.082,39.52,79.592,39.313z
				 M82.987,32.153c-0.467-0.253-0.7-0.725-0.521-1.053c0.181-0.325,1.038-0.941,1.495-0.674c0.454,0.269,0.685,0.742,0.508,1.048
				C84.297,31.78,83.453,32.406,82.987,32.153z M87.332,25.538c-0.407-0.338-0.534-0.853-0.281-1.145
				c0.253-0.29,1.234-0.694,1.609-0.322c0.376,0.372,0.494,0.881,0.259,1.13C88.683,25.45,87.739,25.876,87.332,25.538z
				 M93.549,20.856c-0.153-0.507-0.122-0.963,0.068-1.016c0.194-0.052,0.772,0.273,0.861,0.796c0.09,0.522,0.04,0.976-0.11,1.005
				C94.219,21.67,93.706,21.364,93.549,20.856z M69.655,57.131c-0.525-0.069-0.897-0.569-0.822-1.111
				c0.075-0.544,0.565-0.928,1.089-0.854c0.525,0.074,0.896,0.576,0.821,1.114C70.671,56.817,70.178,57.201,69.655,57.131z
				 M70.84,49.283c-0.522-0.088-0.873-0.604-0.779-1.142c0.093-0.54,0.598-0.905,1.119-0.812c0.523,0.093,0.874,0.607,0.78,1.142
				S71.362,49.372,70.84,49.283z M72.321,41.493c-0.521-0.111-0.881-0.489-0.807-0.847c0.078-0.355,0.711-1.207,1.228-1.091
				c0.517,0.116,0.875,0.501,0.797,0.855C73.462,40.762,72.838,41.604,72.321,41.493z M74.149,33.778
				c-0.513-0.136-0.853-0.538-0.76-0.891c0.096-0.354,0.775-1.167,1.285-1.022c0.51,0.145,0.848,0.545,0.753,0.895
				C75.329,33.108,74.662,33.916,74.149,33.778z M76.456,26.19c-0.501-0.173-0.81-0.602-0.685-0.951s0.866-1.098,1.36-0.912
				c0.496,0.187,0.801,0.614,0.679,0.949C77.687,25.612,76.956,26.366,76.456,26.19z M79.508,18.882
				c-0.474-0.242-0.717-0.711-0.543-1.045c0.173-0.337,1.024-0.965,1.484-0.699c0.458,0.265,0.693,0.732,0.521,1.038
				C80.802,18.48,79.979,19.121,79.508,18.882z M83.979,12.38c-0.373-0.376-0.437-0.908-0.139-1.177
				c0.296-0.271,1.338-0.53,1.646-0.095c0.309,0.434,0.349,0.951,0.093,1.15C85.322,12.456,84.35,12.76,83.979,12.38z
				 M81.944,75.233c0.123-0.36,0.633-0.501,1.128-0.313c0.496,0.186,0.863,0.441,0.819,0.568c-0.046,0.123-0.317,0.349-0.578,0.351
				c-0.262,0-0.654,0.121-0.876,0.269C82.218,76.249,81.818,75.593,81.944,75.233z M85.44,69.631
				c-0.479-0.227-0.683-0.808-0.45-1.29c0.232-0.479,0.811-0.683,1.287-0.45c0.475,0.23,0.681,0.812,0.449,1.288
				C86.495,69.656,85.919,69.859,85.44,69.631z M88.829,62.688c-0.477-0.234-0.671-0.819-0.435-1.294
				c0.237-0.476,0.819-0.673,1.294-0.436c0.475,0.236,0.668,0.819,0.432,1.293C89.886,62.729,89.302,62.923,88.829,62.688z
				 M92.295,55.779c-0.474-0.238-0.665-0.822-0.424-1.297c0.239-0.477,0.823-0.668,1.296-0.428c0.475,0.24,0.666,0.825,0.425,1.298
				C93.352,55.826,92.767,56.02,92.295,55.779z M80.016,67.52c0.124-0.359,0.634-0.501,1.127-0.313
				c0.497,0.187,0.865,0.442,0.821,0.569c-0.046,0.122-0.319,0.349-0.579,0.351c-0.261,0-0.653,0.121-0.874,0.269
				C80.288,68.535,79.891,67.878,80.016,67.52z M83.512,61.918c-0.479-0.228-0.683-0.809-0.449-1.289
				c0.231-0.48,0.81-0.683,1.287-0.452c0.476,0.232,0.68,0.812,0.448,1.288C84.566,61.942,83.989,62.146,83.512,61.918z
				 M86.899,54.974c-0.476-0.234-0.67-0.818-0.435-1.295c0.238-0.475,0.821-0.672,1.295-0.435c0.475,0.237,0.669,0.819,0.433,1.295
				C87.957,55.014,87.375,55.21,86.899,54.974z M90.366,48.066c-0.474-0.239-0.663-0.823-0.423-1.298
				c0.24-0.473,0.823-0.667,1.297-0.426c0.473,0.241,0.663,0.826,0.423,1.298C91.422,48.112,90.837,48.305,90.366,48.066z"/>
		</g>
	</g>
</g>
<g>
	<path fill="#698C2C" d="M83.627,94.797l4.813-3.204c-0.564-0.851-14.146-20.86-38.697-20.86v5.785
		C71.135,76.518,83.505,94.613,83.627,94.797z"/>
</g>
<g>
	<g>
		<path fill="#698C2C" d="M74.404,83.42l3.548-4.568c1.115,0.865,2.218,1.795,3.284,2.763l-3.891,4.283
			C76.391,85.028,75.399,84.194,74.404,83.42z M64.568,77.61l2.251-5.33c1.312,0.553,2.627,1.181,3.91,1.864L68,79.249
			C66.875,78.646,65.723,78.095,64.568,77.61z M53.625,74.786l0.588-5.754c1.45,0.148,2.902,0.37,4.312,0.665l-1.174,5.665
			C56.132,75.107,54.879,74.913,53.625,74.786z"/>
	</g>
	<g>
		<path fill="#698C2C" d="M83.627,92.871l4.813-3.209c0,0-0.432-0.651-1.28-1.727l-4.544,3.574
			C83.255,92.32,83.595,92.824,83.627,92.871z"/>
	</g>
</g>
<g>
	<rect x="49.741" y="90.3" fill="#698C2C" width="36.292" height="1.929"/>
</g>
<g>
	<path fill="#698C2C" d="M91.534,51.491"/>
</g>
</svg>
