<?xml version="1.0" encoding="utf-8"?>
<!-- Generator: Adobe Illustrator 15.0.0, SVG Export Plug-In . SVG Version: 6.00 Build 0)  -->
<!DOCTYPE svg PUBLIC "-//W3C//DTD SVG 1.1//EN" "http://www.w3.org/Graphics/SVG/1.1/DTD/svg11.dtd">
<svg version="1.1" id="Layer_1" xmlns="http://www.w3.org/2000/svg" xmlns:xlink="http://www.w3.org/1999/xlink" x="0px" y="0px"
	 width="100px" height="75.39px" viewBox="0 0 100 75.39" enable-background="new 0 0 100 75.39" xml:space="preserve">
<path fill="#FCEEC0" d="M78.099,68.025c5.746-7.022,9.193-15.994,9.193-25.771c0-22.492-18.232-40.725-40.725-40.725
	c-22.491,0-40.725,18.233-40.725,40.725c0,9.776,3.449,18.748,9.194,25.771H78.099z"/>
<path fill="#46AB00" d="M87.002,51.537c2.2,1.123,3.985,3.065,4.854,5.571c-0.024-0.088-0.048-0.176-0.074-0.26
	c-0.797-2.511-2.503-4.477-4.639-5.66c1.081-0.121,2.203,0.034,3.27,0.505c3.182,1.407,4.643,5.095,3.31,8.288
	c-1.084,0.126-2.216-0.029-3.285-0.503C87.371,58.124,85.912,54.648,87.002,51.537z"/>
<path fill="#46AB00" d="M87.322,50.015c1.339-0.695,2.424-1.89,2.947-3.421c-0.016,0.051-0.028,0.103-0.046,0.156
	c-0.478,1.538-1.513,2.748-2.815,3.479c0.661,0.069,1.349-0.029,1.998-0.324c1.94-0.87,2.819-3.131,1.993-5.081
	c-0.663-0.069-1.355,0.028-2.007,0.322C87.521,45.987,86.643,48.115,87.322,50.015z"/>
<path fill="#46AB00" d="M42.387,26.164c-0.031-1.934,0.659-3.879,2.074-5.397c-0.05,0.05-0.103,0.097-0.153,0.147
	c-1.443,1.47-2.181,3.37-2.217,5.28c-0.477-0.704-0.781-1.538-0.847-2.447c-0.192-2.714,1.825-5.075,4.521-5.324
	c0.483,0.706,0.789,1.544,0.855,2.458C46.807,23.497,44.939,25.779,42.387,26.164z"/>
<path fill="#46AB00" d="M27.177,37.996c-2.243-2.176-3.678-5.187-3.794-8.539c-0.004,0.114-0.008,0.229-0.007,0.342
	c0.028,3.331,1.358,6.343,3.499,8.568c-1.348-0.258-2.65-0.863-3.763-1.828c-3.323-2.885-3.715-7.885-0.917-11.253
	c1.357,0.256,2.666,0.862,3.783,1.833C29.182,29.897,29.654,34.641,27.177,37.996z"/>
<path fill="#46AB00" d="M26.873,38.962c-1.911-0.014-3.828,0.684-5.317,2.093c0.048-0.048,0.095-0.1,0.145-0.149
	c1.441-1.441,3.312-2.185,5.2-2.236c-0.699-0.465-1.527-0.76-2.424-0.815c-2.687-0.168-5.004,1.844-5.228,4.514
	c0.702,0.47,1.533,0.767,2.436,0.825C24.273,43.351,26.514,41.487,26.873,38.962z"/>
<path fill="#46AB00" d="M41.593,26.638c-1.085-1.574-2.754-2.744-4.763-3.155c0.069,0.01,0.135,0.018,0.205,0.03
	c2.008,0.355,3.689,1.462,4.813,2.98c-0.019-0.841-0.252-1.687-0.721-2.456c-1.403-2.297-4.379-3.042-6.694-1.694
	c0.016,0.844,0.249,1.696,0.721,2.468C36.506,27.025,39.32,27.791,41.593,26.638z"/>
<path fill="#672A00" d="M53.273,51.488v-6.903h-5.268v6.903H34.836l0.32-13.329l14.132-11.562h-7.065L27.063,38.159L26.164,52.29
	L1.849,57.104c1.474,6.037,4.034,11.642,7.459,16.604L31.239,57.88l18.307-2.056l14.685,5.73l8.573-0.121l-16.729-6.752
	l34.215-4.187L53.273,51.488z"/>
<path fill="#46AB00" d="M90.131,50.663c1.69-0.89,3.71-1.147,5.68-0.579c-0.067-0.022-0.131-0.047-0.197-0.067
	c-1.94-0.617-3.942-0.42-5.642,0.4c0.407-0.735,1.005-1.375,1.776-1.837c2.308-1.381,5.285-0.653,6.708,1.609
	c-0.404,0.739-1.007,1.385-1.784,1.847C94.45,53.367,91.605,52.738,90.131,50.663z"/>
</svg>
