<?xml version="1.0" encoding="utf-8"?>
<!-- Generator: Adobe Illustrator 15.0.0, SVG Export Plug-In . SVG Version: 6.00 Build 0)  -->
<!DOCTYPE svg PUBLIC "-//W3C//DTD SVG 1.1//EN" "http://www.w3.org/Graphics/SVG/1.1/DTD/svg11.dtd">
<svg version="1.1" id="Layer_1" xmlns="http://www.w3.org/2000/svg" xmlns:xlink="http://www.w3.org/1999/xlink" x="0px" y="0px"
	 width="100px" height="100.013px" viewBox="0 0.485 100 100.013" enable-background="new 0 0.485 100 100.013"
	 xml:space="preserve">
<title>67 -Greenhouse- (Solid)</title>
<desc>Created with Sketch.</desc>
<path fill="#698C2C" d="M85.282,4.653c-0.075-0.343-0.418-0.562-0.757-0.484c-4.856,1.077-25.633,13.144-29.26,16.991
	c-1.928,2.045-2.762,4.458-3.109,6.317c-0.673-1.002-1.216-1.731-1.216-1.731s-0.776,1.036-1.627,2.37
	c-0.284-1.917-1.068-4.667-3.227-6.954c-3.629-3.847-24.403-15.91-29.26-16.99c-0.347-0.086-0.683,0.138-0.763,0.481
	c-0.071,0.338,0.141,0.679,0.487,0.756c4.594,1.02,25.176,12.979,28.608,16.619c2.739,2.912,3.009,6.787,3.02,7.981
	c-0.299,0.54-0.556,1.072-0.735,1.562c-0.627,0.095-1.113,0.634-1.113,1.291c0,0.601,0.407,1.099,0.953,1.255
	c0.433,1.427,1.532,2.256,1.532,2.256s-1.328,0.593-2.5,1.513L41.47,28.93h-1.384l-0.532,4.362l-3.295-2.98l-0.532-1.064
	l-0.533,0.106v0.637H34.56v0.532l1.064,0.321l3.822,3.828l1.064-0.104l0.208-3.406l4.566,7.675
	c-0.359,0.423-0.633,0.881-0.734,1.366c0,0-4.422,0.806-3.496,3.977l-5.866-3.446l-2.339,0.534l-7.123,8.084l-6.485-1.274
	l0.106,0.638l-0.639,0.638l6.81,0.956l1.265-0.108l6.81-7.975l7.59,4.286c0.083,2.626,0.365,7.117,1.234,9.434
	c0,0-0.197,0.48-0.46,1.332c-3.139,0.815-14.25,11.028-15.068,13.982c-0.856,3.082-2.659,13.829,1.598,12.972l1.27,5.212
	l-4.572,4.354l-1.064,0.212l0.852,0.532l0.638,1.062l0.636-1.49l4.893-4.681c0,0-1.17-5.416-1.277-5.635
	c3.515-2.553-1.697-7.549-1.803-10.956c0,0,3.619-3.41,6.373-6.27c2.46-2.551,5.242-6.26,6.945-7.224
	c-0.968,4.11-1.78,11.238,1.886,17.435c0,0,3.823,9.789,7.662,9.789c3.834,0,7.653-9.789,7.653-9.789
	c3.635-6.133,2.87-13.187,1.913-17.312c1.722,1.104,4.402,4.646,6.762,7.11c2.764,2.872,6.379,6.27,6.379,6.27
	c-0.104,3.405-5.319,8.403-1.805,10.956c-0.105,0.21-1.27,5.637-1.27,5.637l4.886,4.68l0.635,1.491l0.633-1.054l0.862-0.534
	l-1.065-0.209l-4.582-4.361l1.271-5.213c4.25,0.858,2.458-9.891,1.596-12.971C73.99,68.36,63.254,58.45,59.894,57.338
	c-0.268-0.878-0.474-1.386-0.474-1.386c0.873-2.341,1.147-6.885,1.246-9.499l7.486-4.224l6.797,7.977l1.274,0.104l6.809-0.955
	l-0.634-0.638l0.104-0.639l-6.487,1.277l-7.123-8.084l-2.335-0.532L60.82,44.11c0.836-3.108-3.521-3.901-3.521-3.901
	c-0.103-0.538-0.438-1.051-0.866-1.512l4.476-7.527l0.211,3.406l1.065,0.104l3.828-3.828l1.058-0.32v-0.54h-0.637v-0.634
	l-0.527-0.107l-0.532,1.065l-3.296,2.981l-0.532-4.365h-1.385l-4.768,8.844c-1.133-0.853-2.354-1.396-2.354-1.396
	s1.097-0.817,1.532-2.236c0.592-0.135,1.005-0.653,1.005-1.267c0-0.675-0.505-1.226-1.161-1.3c-0.288-0.75-0.736-1.601-1.22-2.416
	c0.139-1.668,0.71-4.718,2.986-7.125c3.428-3.638,24.011-15.598,28.604-16.62C85.141,5.332,85.356,4.991,85.282,4.653z"/>
</svg>
