<?xml version="1.0" encoding="utf-8"?>
<!-- Generator: Adobe Illustrator 15.0.0, SVG Export Plug-In . SVG Version: 6.00 Build 0)  -->
<!DOCTYPE svg PUBLIC "-//W3C//DTD SVG 1.1//EN" "http://www.w3.org/Graphics/SVG/1.1/DTD/svg11.dtd">
<svg version="1.1" id="Layer_1" xmlns="http://www.w3.org/2000/svg" xmlns:xlink="http://www.w3.org/1999/xlink" x="0px" y="0px"
	 width="100px" height="100.013px" viewBox="0 0.485 100 100.013" enable-background="new 0 0.485 100 100.013"
	 xml:space="preserve">
<title>67 -Greenhouse- (Solid)</title>
<desc>Created with Sketch.</desc>
<path fill="#698C2C" d="M38.812,74.471l32.783-7.613c14.802-3.456,21.359-14.454,21.359-23.619c0-9.164-6.203-17.764-18.682-25.731
	L52.418,3.761c-6.343-3.737-11.772,2.466-5.639,7.402l9.518,7.401c3.876,3.104-0.071,7.544-3.879,6.911l-31.371-5.64
	c-5.852-0.988-7.261,6.273-2.115,7.403l23.968,5.146c3.807,1.127,3.878,4.511,0,4.511H13.645c-3.525,0-5.287,2.327-5.287,4.582
	c0,2.257,1.762,4.584,5.287,4.584h29.256c3.878,0,4.089,3.595,0.282,4.299l-24.25,4.937c-6.416,1.269-4.724,8.318,2.115,7.4
	l25.731-3.946c3.525-0.494,4.583,2.89,1.34,4.087l-12.478,4.585C30.564,69.253,32.608,75.95,38.812,74.471z M76.668,55.083
	c-6.694,4.441-14.946,2.607-18.047-4.089C64.263,46.201,74.201,48.455,76.668,55.083z M77.093,85.819
	c7.403-0.705,11.985-7.896,10.081-15.652C79.983,70.31,74.555,78.77,77.093,85.819z M70.256,97.1
	c2.396-6.979-2.187-14.17-10.014-15.65C57.354,88.006,62.711,96.394,70.256,97.1z"/>
</svg>
